<svg width="16" height="17" viewBox="0 0 16 17" fill="none" xmlns="http://www.w3.org/2000/svg">
<g clip-path="url(#clip0_1855_11138)">
<rect y="0.5" width="16" height="16" rx="8" fill="#008A5D"/>
<g filter="url(#filter0_d_1855_11138)">
<path d="M12.3161 11.7777C11.9646 12.8645 10.8971 13.4615 9.77275 13.2246C8.83066 13.0253 8.30441 12.1143 8.48876 11.1872C8.68275 10.2097 9.05788 9.17973 9.2926 8.20119C9.32689 8.05543 9.38906 7.78855 9.40513 7.69852C9.40835 7.68137 9.39656 7.66637 9.38048 7.66315C9.32368 7.65458 9.21543 7.64922 9.21543 7.64922C8.29369 7.62886 7.7653 7.99326 7.48878 8.85283C7.16832 9.84959 6.96468 10.9074 6.63993 11.9053C6.14905 13.3983 3.78791 13.8431 3.0098 12.3715C2.66576 11.7199 2.85653 11.185 3.03124 10.5312C3.50925 8.73601 4.03014 6.95042 4.51458 5.15625V5.15411C4.88971 4.0416 6.19085 3.43818 7.29158 3.85725C7.35803 3.88297 7.5681 4.00623 7.60454 4.00944C7.66134 4.01266 7.97002 3.90655 8.06004 3.88619C9.39334 3.58287 11.0107 3.70077 12.0857 4.61929C12.0975 4.62893 12.1092 4.63965 12.121 4.6493C12.957 5.37811 13.3257 6.51099 13.1339 7.60421C13.1339 7.60421 12.3997 11.5184 12.315 11.7799L12.3161 11.7777Z" fill="#F2D608"/>
<path d="M12.3161 11.7777C11.9646 12.8645 10.8971 13.4615 9.77275 13.2246C8.83066 13.0253 8.30441 12.1143 8.48876 11.1872C8.68275 10.2097 9.05788 9.17973 9.2926 8.20119C9.32689 8.05543 9.38906 7.78855 9.40513 7.69852C9.40835 7.68137 9.39656 7.66637 9.38048 7.66315C9.32368 7.65458 9.21543 7.64922 9.21543 7.64922C8.29369 7.62886 7.7653 7.99326 7.48878 8.85283C7.16832 9.84959 6.96468 10.9074 6.63993 11.9053C6.14905 13.3983 3.78791 13.8431 3.0098 12.3715C2.66576 11.7199 2.85653 11.185 3.03124 10.5312C3.50925 8.73601 4.03014 6.95042 4.51458 5.15625V5.15411C4.88971 4.0416 6.19085 3.43818 7.29158 3.85725C7.35803 3.88297 7.5681 4.00623 7.60454 4.00944C7.66134 4.01266 7.97002 3.90655 8.06004 3.88619C9.39334 3.58287 11.0107 3.70077 12.0857 4.61929C12.0975 4.62893 12.1092 4.63965 12.121 4.6493C12.957 5.37811 13.3257 6.51099 13.1339 7.60421C13.1339 7.60421 12.3997 11.5184 12.315 11.7799L12.3161 11.7777Z" stroke="#00B669" stroke-width="0.699251" stroke-miterlimit="10"/>
</g>
</g>
<defs>
<filter id="filter0_d_1855_11138" x="-1.53125" y="-0.625977" width="19.0645" height="18.2517" filterUnits="userSpaceOnUse" color-interpolation-filters="sRGB">
<feFlood flood-opacity="0" result="BackgroundImageFix"/>
<feColorMatrix in="SourceAlpha" type="matrix" values="0 0 0 0 0 0 0 0 0 0 0 0 0 0 0 0 0 0 127 0" result="hardAlpha"/>
<feOffset/>
<feGaussianBlur stdDeviation="2"/>
<feComposite in2="hardAlpha" operator="out"/>
<feColorMatrix type="matrix" values="0 0 0 0 0 0 0 0 0 0 0 0 0 0 0 0 0 0 0.2 0"/>
<feBlend mode="normal" in2="BackgroundImageFix" result="effect1_dropShadow_1855_11138"/>
<feBlend mode="normal" in="SourceGraphic" in2="effect1_dropShadow_1855_11138" result="shape"/>
</filter>
<clipPath id="clip0_1855_11138">
<rect y="0.5" width="16" height="16" rx="8" fill="white"/>
</clipPath>
</defs>
</svg>
