<svg width="24" height="11" viewBox="0 0 24 11" fill="none" xmlns="http://www.w3.org/2000/svg">
<path d="M22.1214 0.764648V0.77385C22.0682 0.800971 21.9672 0.800971 21.9141 0.77385V0.764648H22.1214Z" fill="#C5C5C5"/>
<path d="M21.9141 0.773283C21.9788 0.770397 22.0552 0.770397 22.1199 0.773283C22.7468 0.801181 23.3131 1.23985 23.5224 1.82667C23.8804 2.82956 23.183 3.89978 22.1291 3.96664L22.2779 4.06573C22.7943 4.44812 23.016 5.10613 22.8576 5.73095C22.4924 7.0234 22.1612 8.32642 21.7782 9.6131C21.4394 10.4279 20.5275 10.9354 19.6569 10.6987C19.366 10.6198 19.1092 10.4539 18.9081 10.2317C18.6782 10.4534 18.4023 10.6251 18.0903 10.7045C16.8976 11.0066 15.8038 10.1254 16.0755 8.87332C16.1955 8.32113 16.4023 7.76558 16.5314 7.21387C16.5338 7.20425 16.5463 7.18501 16.5338 7.17876C16.4086 7.25716 16.3207 7.3904 16.2603 7.52267C16.0539 8.16673 15.9181 8.84302 15.716 9.48708C15.4492 10.337 14.7038 10.8069 13.8221 10.7564C13.4219 10.7333 13.0235 10.5361 12.7648 10.2321C12.6823 10.2952 12.6064 10.3668 12.5215 10.4265C12.0137 10.7819 11.3533 10.8671 10.786 10.5991C9.70371 10.9243 8.48224 10.7834 7.63802 9.99309C7.5689 9.92815 7.50795 9.85264 7.4374 9.79155C7.19359 10.2572 6.74291 10.6145 6.22505 10.7218C5.05974 10.9633 4.06289 10.122 4.27694 8.92046L4.74921 7.17876C4.63882 7.23888 4.56875 7.34855 4.50444 7.45341C4.25439 8.12922 4.13728 8.87188 3.90786 9.55297C3.26185 11.4741 0.20507 10.994 0.663899 8.84158C1.04402 7.50728 1.37854 6.15712 1.78362 4.831C2.14262 4.00993 3.07324 3.58328 3.93762 3.82859C3.98514 3.84206 4.13728 3.91036 4.16416 3.91036C4.23231 3.91133 4.44301 3.84447 4.5318 3.82859C5.77582 3.6107 7.07744 3.91373 7.78152 5.02532C7.80696 5.06573 7.83575 5.13595 7.86119 5.16866C7.87895 5.19127 7.88231 5.15808 7.89383 5.14605C8.8398 4.1576 10.3012 3.52941 11.6763 3.84928C11.7334 3.86226 11.9729 3.945 11.9988 3.94403C12.019 3.94307 12.1942 3.86515 12.2393 3.85168C12.8138 3.67804 13.4247 3.79925 13.8596 4.21917C13.8769 4.23552 13.9152 4.29661 13.933 4.29372C13.9445 4.2918 14.0808 4.16241 14.1082 4.14076C14.5593 3.78915 15.1818 3.67131 15.7338 3.831C15.7798 3.84447 15.9262 3.91036 15.9531 3.91085C16.0213 3.91181 16.232 3.84495 16.3207 3.82908C17.1823 3.67804 18.1618 3.78001 18.887 4.29613C19.1808 4.50536 19.4106 4.76895 19.6041 5.0715C19.8052 4.35673 20.4833 3.82378 21.2215 3.76991C21.1538 3.717 21.0785 3.67419 21.0113 3.61984C19.8824 2.70402 20.4723 0.837737 21.9131 0.773283H21.9141Z" fill="#00A962"/>
<path d="M7.73846 5.96158L7.75766 5.9558C8.695 4.65855 10.4305 3.75282 12.0162 4.39736C12.4909 4.13185 13.0832 4.09818 13.5113 4.4724C13.6874 4.62632 13.7839 4.82978 13.9039 5.02507C14.0483 4.80958 14.1918 4.59457 14.4049 4.44065C14.8369 4.12897 15.4421 4.09097 15.9052 4.35985C17.0864 3.99862 18.5709 4.13907 19.2452 5.30309C19.4429 5.64412 19.5293 6.0318 19.6584 6.40169L19.9925 5.20544C20.2334 4.33868 21.3858 3.83508 22.1081 4.46807C22.494 4.80621 22.5405 5.25451 22.4229 5.72973C22.1206 6.95532 21.7289 8.16167 21.416 9.38485C21.1549 10.1516 20.1835 10.6172 19.4626 10.1612C19.2006 9.99524 19.0887 9.76821 18.9337 9.51136C18.8022 9.6797 18.6947 9.86585 18.5315 10.0073C17.9705 10.4926 16.9799 10.482 16.5901 9.78889C16.4346 9.51232 16.4193 9.23237 16.4893 8.92646C16.6391 8.27326 16.8954 7.60996 17.0278 6.95628C17.0442 6.87499 17.049 6.79178 17.0682 6.71097C16.8805 6.7052 16.702 6.6874 16.5167 6.73406C16.1961 6.81535 15.9436 7.14147 15.8409 7.44306C15.6317 8.05777 15.5122 8.73791 15.3154 9.3608C15.1877 9.7658 14.9017 10.0963 14.5024 10.2507C14.1563 10.3844 13.6821 10.3757 13.3567 10.1896C13.0865 10.0352 12.9502 9.78649 12.8101 9.51953C12.7981 9.51713 12.7937 9.52675 12.787 9.53396C12.6901 9.6369 12.6128 9.77879 12.5111 9.88509C12.1257 10.2891 11.5113 10.4685 10.9882 10.23C10.9503 10.2127 10.8586 10.1492 10.8274 10.1472C10.7962 10.1453 10.6148 10.2151 10.5634 10.2285C9.82767 10.4253 8.94649 10.3834 8.2904 9.97263C7.84549 9.69413 7.56952 9.29923 7.29403 8.86345C7.2398 9.0318 7.2062 9.20784 7.15149 9.37619C6.92495 10.078 6.23719 10.4637 5.51295 10.3103C4.90581 10.1819 4.56697 9.59361 4.68552 8.99428C4.81078 8.36321 5.06036 7.70857 5.21106 7.07653C5.23794 6.96398 5.26433 6.837 5.27873 6.72252C5.28113 6.70376 5.27873 6.71097 5.26529 6.70905C5.23074 6.70472 5.18898 6.71145 5.15299 6.70905C4.56697 6.67105 4.21853 6.93127 4.04047 7.48635C3.83409 8.12992 3.70306 8.81294 3.49381 9.45796C3.17752 10.4224 1.65561 10.7095 1.15454 9.75907C0.932808 9.33868 1.05615 8.99236 1.16798 8.571C1.47611 7.41083 1.81207 6.25787 2.12404 5.09914C2.36497 4.38005 3.2044 3.98996 3.91376 4.26076C3.95696 4.27711 4.09182 4.35696 4.11534 4.35888C4.15182 4.36129 4.35099 4.29251 4.40907 4.27952C5.26769 4.08375 6.31062 4.15975 7.00318 4.75282C7.37802 5.07365 7.58584 5.49789 7.7375 5.96061L7.73846 5.96158Z" fill="#F3DD01"/>
<path d="M21.9381 1.18725C22.8126 1.12905 23.45 2.02852 23.1011 2.83901C22.7493 3.65526 21.6435 3.80918 21.0896 3.10885C20.4964 2.35801 20.9898 1.25075 21.9381 1.18725Z" fill="#F3DD01"/>
<path d="M10.5539 6.59144C10.7276 6.57364 10.9028 6.62895 10.9782 6.79779C11.2057 7.30909 10.2683 8.15469 9.79558 7.86993C9.72695 7.82857 9.67079 7.75834 9.64632 7.68234C9.50089 7.22972 10.132 6.63473 10.5539 6.59144Z" fill="#00A962"/>
<path d="M10.5835 7.00818C10.5072 7.24243 10.2812 7.42953 10.0508 7.50457C10.1295 7.27321 10.3517 7.08033 10.5835 7.00818Z" fill="#00A962"/>
</svg>
