<svg width="24" height="12" viewBox="0 0 24 12" fill="none" xmlns="http://www.w3.org/2000/svg">
<path d="M5.62746 11.2692C4.83763 11.1004 4.41408 10.3375 4.58019 9.5721L5.62746 11.2692ZM5.62746 11.2692C5.73908 11.2935 5.85123 11.3069 5.96255 11.3104C5.98116 11.3125 5.99999 11.3135 6.01895 11.3135C6.71285 11.3135 7.31928 10.9202 7.6098 10.3061C8.12624 10.9711 8.92466 11.3135 9.81519 11.3135C10.2458 11.3135 10.6817 11.2263 11.0812 11.0724C11.2735 11.1935 11.5257 11.2835 11.8454 11.2835C12.2385 11.2835 12.601 11.1675 12.8978 10.9154C13.1675 11.17 13.532 11.3012 13.9214 11.3012C14.522 11.3012 15.3174 10.9604 15.5833 10.1927L15.5839 10.1908C15.7102 9.82128 15.8157 9.4349 15.9134 9.07735L15.9161 9.06735L15.9162 9.06683L15.9181 9.06021C16.0174 8.69806 16.1154 8.34074 16.2315 7.99741C16.3298 7.7077 16.4614 7.53559 16.6058 7.43176C16.7417 7.33408 16.9305 7.26696 17.2056 7.25943C17.1874 7.33321 17.1711 7.3969 17.1683 7.40757L17.1674 7.411C17.092 7.7062 16.9969 8.01143 16.8977 8.32845C16.7751 8.7201 16.6402 9.15222 16.5515 9.5623C16.3855 10.3276 16.8091 11.0904 17.5988 11.2592M5.62746 11.2692L21.6708 1.36276C22.9432 1.27798 23.8658 2.58095 23.3593 3.75562C23.1613 4.21482 22.7945 4.53075 22.3729 4.68381C22.3733 4.68415 22.3737 4.68448 22.3741 4.68482C22.9578 5.17308 23.0336 5.82749 22.9202 6.40824C22.8004 7.02288 22.6585 7.63112 22.5175 8.22978C22.5084 8.26822 22.4994 8.30662 22.4903 8.34499C22.3579 8.90689 22.2274 9.46019 22.1139 10.0161C22.1112 10.0292 22.1081 10.0421 22.1044 10.0549C21.8064 11.0859 20.5286 11.7508 19.4762 11.1089C19.4446 11.0899 19.4167 11.0711 19.3943 11.0555M17.5988 11.2592C17.5985 11.2591 17.5981 11.2591 17.5977 11.259L17.623 11.1428M17.5988 11.2592C17.5992 11.2593 17.5996 11.2594 17.6 11.2595L17.6245 11.1444M17.5988 11.2592C17.7105 11.2835 17.8226 11.2969 17.9339 11.3003M17.623 11.1428C17.6235 11.1433 17.624 11.1438 17.6245 11.1444M17.623 11.1428C17.6094 11.128 17.5966 11.1123 17.5847 11.0958C17.5021 10.9812 17.4723 10.8378 17.5009 10.7012C17.5638 10.7316 17.6317 10.755 17.7041 10.7704M17.623 11.1428L17.7041 10.7704M17.6245 11.1444L17.7041 10.7704M17.6245 11.1444L17.9903 10.8012M17.6245 11.1444C17.7057 11.2315 17.8155 11.2869 17.9339 11.3003M17.6245 11.1444L17.9903 10.8012M17.9339 11.3003C17.9525 11.3025 17.9714 11.3035 17.9903 11.3035C18.4371 11.3035 18.8476 11.1405 19.1609 10.8604M17.9339 11.3003C17.9528 11.3009 17.9716 11.3012 17.9903 11.3012C17.9906 11.3012 17.9908 11.3012 17.9911 11.3012V10.8038M19.1609 10.8604C19.2333 10.9328 19.3117 10.9981 19.3943 11.0555M19.1609 10.8604C19.0434 10.743 18.9416 10.6069 18.8627 10.4551C19.0058 10.317 19.1178 10.1425 19.1866 9.94053L19.4836 10.4754C19.3938 10.6202 19.285 10.7495 19.1609 10.8604ZM19.3943 11.0555C19.3944 11.0556 19.3946 11.0557 19.3947 11.0558L19.68 10.6452L19.3943 11.0555ZM20.6815 4.39533C20.595 4.32244 20.5139 4.23914 20.4395 4.14517L20.4393 4.14496C19.5798 3.05807 20.293 1.45428 21.6706 1.36278L20.6815 4.39533ZM20.6815 4.39533C20.6676 4.40032 20.6537 4.40547 20.64 4.41079C20.3183 4.5352 20.0241 4.75274 19.8114 5.04026C19.7337 4.94497 19.6481 4.8554 19.5547 4.77263C19.5543 4.77224 19.5538 4.77185 19.5534 4.77146L19.5336 4.75367L19.5336 4.75362L19.5274 4.74823C18.8592 4.1683 18.0077 4.06617 17.4664 4.06617C17.1358 4.06617 16.8025 4.1035 16.4748 4.1779L16.4747 4.17793C16.4426 4.18524 16.3968 4.19899 16.373 4.20611C16.3699 4.20704 16.3672 4.20785 16.3649 4.20853L16.3512 4.21246L16.3512 4.21242L16.3444 4.21445C16.2782 4.23439 16.2387 4.24608 16.2101 4.25357C16.1962 4.24637 16.1799 4.23769 16.1578 4.22588L16.1575 4.22574L15.9224 4.66702M20.6815 4.39533L19.5546 5.53861C19.4631 5.39321 19.3517 5.26068 19.222 5.14587L19.1997 5.12586C18.6666 4.66317 17.9626 4.56617 17.4664 4.56617C17.1733 4.56617 16.8771 4.59928 16.5856 4.66548C16.572 4.66856 16.5502 4.67507 16.5247 4.68267L16.5048 4.68858L16.4886 4.6932C16.3378 4.73862 16.2625 4.76095 16.1863 4.76095H16.1686C16.0887 4.75562 16.0306 4.72468 15.9259 4.66887L15.9224 4.66702M15.9224 4.66702L15.9181 4.66473L15.9181 4.6647L15.9181 4.66469L15.918 4.66468L15.918 4.66467C15.8953 4.65255 15.8656 4.63671 15.8563 4.63238C15.7255 4.58157 15.5855 4.55616 15.4416 4.55616C15.0562 4.55616 14.6908 4.73557 14.4544 5.01996C14.4226 4.96109 14.3857 4.90369 14.3436 4.848L14.3433 4.84766C14.2869 4.77327 14.2172 4.69805 14.133 4.62835M15.9224 4.66702L16.1578 4.22592C16.1567 4.22529 16.1551 4.22442 16.1531 4.22337C16.1357 4.21405 16.0903 4.18973 16.0659 4.17846C16.0565 4.17412 16.047 4.17007 16.0373 4.16632C15.8463 4.09209 15.6446 4.05616 15.4416 4.05616C14.9425 4.05616 14.4644 4.27164 14.133 4.62835M14.133 4.62835C13.9175 4.45007 13.6067 4.30791 13.1794 4.30791C12.9555 4.30791 12.6941 4.35391 12.4359 4.49424L14.133 4.62835ZM17.9903 10.8012C17.988 10.8012 17.9857 10.8012 17.9833 10.8012C17.8905 10.8007 17.797 10.7907 17.7041 10.7704M17.9903 10.8012V10.8035L17.9911 10.8038M17.9911 10.8038L18.4646 10.9618L18.4654 10.9595C18.493 10.8767 18.4981 10.7893 18.4819 10.7059C18.3327 10.7684 18.1692 10.8025 17.998 10.8035C17.9957 10.8035 17.9934 10.8035 17.9911 10.8035V10.8038ZM7.58338 4.78269L7.56221 4.7637L7.56226 4.76365L7.55603 4.75824C6.88779 4.1783 6.03629 4.07618 5.49505 4.07618C5.16443 4.07618 4.83111 4.1135 4.50347 4.1879L4.5033 4.18794C4.47119 4.19524 4.42537 4.209 4.40164 4.21612C4.39855 4.21704 4.39583 4.21786 4.39356 4.21854L4.3798 4.22247L4.37979 4.22242L4.37304 4.22446C4.30685 4.24439 4.26736 4.25609 4.23875 4.26358C4.22485 4.25638 4.20855 4.24769 4.18638 4.23588L4.18613 4.23575C4.18499 4.23514 4.18349 4.23434 4.1817 4.23337C4.16431 4.22405 4.11894 4.19974 4.09453 4.18847C4.08513 4.18412 4.0756 4.18008 4.06595 4.17633C3.87488 4.10209 3.67322 4.06617 3.47022 4.06617C2.74483 4.06617 2.06383 4.52128 1.81309 5.20359C1.80894 5.21489 1.8052 5.22633 1.80187 5.23789C1.63103 5.83204 1.4524 6.43354 1.27694 7.02342L1.27679 7.02395C1.26011 7.08025 1.24336 7.13675 1.22657 7.19341C1.04242 7.81477 0.852264 8.45641 0.672408 9.08986C0.672292 9.09026 0.672176 9.09067 0.67206 9.09108L0.640498 9.2001C0.640483 9.20015 0.640468 9.2002 0.640454 9.20025C0.636154 9.21509 0.631764 9.23012 0.627317 9.24535C0.524863 9.59618 0.392387 10.0498 0.648244 10.5523L0.648551 10.5529C0.903125 11.0512 1.40175 11.3112 1.95006 11.3112C2.55061 11.3112 3.34606 10.9704 3.6119 10.2027L3.61255 10.2008C3.73881 9.83129 3.84434 9.44491 3.94199 9.08735L3.94472 9.07736L3.94486 9.07684L3.94667 9.07022C4.04599 8.70813 4.14397 8.35088 4.26001 8.0076C4.35833 7.71778 4.48998 7.54562 4.63446 7.44176C4.77034 7.34408 4.95912 7.27697 5.23418 7.26944C5.21601 7.34321 5.1997 7.4069 5.19689 7.41758L5.19688 7.41757L5.196 7.42101C5.12061 7.71621 5.02547 8.02144 4.92633 8.33845L7.58338 4.78269ZM20.1078 5.50709C20.0611 5.59719 20.0252 5.69361 20.0023 5.79508L20.1078 5.50709ZM4.92629 8.33857C4.80375 8.73007 4.66892 9.16198 4.58024 9.57189L4.92629 8.33857ZM10.9663 7.48894C10.8505 7.90011 10.4886 8.16971 10.2207 8.1912L10.2443 8.07179C10.2443 8.07178 10.2443 8.07176 10.2443 8.07175C10.2974 7.88254 10.4202 7.69844 10.5801 7.56293C10.7269 7.43853 10.8743 7.37998 10.988 7.3697C10.9857 7.40206 10.9793 7.44219 10.9663 7.48894Z" fill="#0FA25E" stroke="#0FA25E" stroke-linejoin="round"/>
<path d="M6.01972 10.8112C5.92432 10.8112 5.82816 10.8012 5.73277 10.7804C5.24118 10.6757 4.95499 10.2023 5.06885 9.67801C5.15193 9.29385 5.27964 8.88352 5.4035 8.48781C5.50197 8.17294 5.60121 7.85499 5.68045 7.54474C5.68815 7.51549 5.75431 7.25605 5.77123 7.16443C5.78739 7.07667 5.76815 6.98583 5.71815 6.915C5.66737 6.84263 5.59044 6.79567 5.50274 6.78258C5.44735 6.77412 5.36273 6.7695 5.35273 6.7695C5.3258 6.7695 5.3058 6.76873 5.28656 6.76873C4.52341 6.76873 4.03259 7.12132 3.78641 7.84729C3.66408 8.20913 3.56177 8.58327 3.46253 8.94511C3.36328 9.30848 3.26097 9.6834 3.13941 10.0391C2.96401 10.5456 2.40857 10.8112 1.95006 10.8112C1.56309 10.8112 1.25152 10.6342 1.09381 10.3255C0.92918 10.0021 1.00919 9.7242 1.12074 9.33927L1.15305 9.22764C1.34846 8.53939 1.55617 7.84113 1.75619 7.16597C1.93159 6.57626 2.11084 5.9727 2.2824 5.37606C2.4578 4.89875 2.94555 4.56617 3.47022 4.56617C3.61408 4.56617 3.75409 4.59158 3.88488 4.64239C3.89488 4.64701 3.92796 4.66471 3.95104 4.67703C4.05797 4.734 4.11644 4.76557 4.19722 4.77095H4.21491C4.29107 4.77095 4.36647 4.74863 4.51725 4.70321L4.53341 4.69859C4.56726 4.68858 4.59726 4.67934 4.61419 4.67549C4.90575 4.60928 5.20194 4.57618 5.49505 4.57618C5.99125 4.57618 6.69517 4.67318 7.22831 5.13586L7.25062 5.15588C7.7499 5.59778 7.97762 6.30219 7.84453 6.99275C7.5645 8.35771 7.25293 9.83814 7.21523 9.95054C7.03675 10.4748 6.5667 10.8135 6.01895 10.8135L6.01972 10.8112Z" fill="#F2D608"/>
<path d="M17.9911 10.8012C17.8957 10.8012 17.7995 10.7912 17.7041 10.7704C17.2126 10.6657 16.9264 10.1923 17.0402 9.668C17.1233 9.28384 17.251 8.87351 17.3749 8.4778C17.4734 8.16293 17.5726 7.84498 17.6518 7.53473C17.6595 7.50548 17.7257 7.24604 17.7426 7.15442C17.7588 7.06666 17.7395 6.97582 17.6895 6.90499C17.6388 6.83262 17.5618 6.78566 17.4741 6.77258C17.4187 6.76411 17.3341 6.75949 17.3241 6.75949C17.2972 6.75949 17.2772 6.75872 17.2579 6.75872C16.4948 6.75872 16.004 7.11131 15.7578 7.83729C15.6355 8.19912 15.5331 8.57327 15.4339 8.9351C15.3347 9.29847 15.2323 9.67339 15.1108 10.0291C14.9354 10.5356 14.3799 10.8012 13.9214 10.8012C13.5345 10.8012 13.2229 10.6242 13.0652 10.3154C12.9006 9.99211 12.9806 9.71419 13.0921 9.32926L13.1244 9.21763C13.3198 8.52938 13.5275 7.83113 13.7276 7.15596C13.903 6.56625 14.0822 5.96269 14.2538 5.36605C14.4292 4.88874 14.9169 4.55616 15.4416 4.55616C15.5855 4.55616 15.7255 4.58157 15.8563 4.63238C15.8663 4.637 15.8993 4.65471 15.9224 4.66702C16.0294 4.72399 16.0878 4.75556 16.1686 4.76095H16.1863C16.2625 4.76095 16.3378 4.73862 16.4886 4.6932L16.5048 4.68858C16.5386 4.67857 16.5686 4.66933 16.5856 4.66548C16.8771 4.59928 17.1733 4.56617 17.4664 4.56617C17.9626 4.56617 18.6666 4.66317 19.1997 5.12586L19.222 5.14587C19.7213 5.58777 19.949 6.29219 19.8159 6.98275C19.5359 8.3477 19.2243 9.82813 19.1866 9.94053C19.0081 10.4648 18.5381 10.8035 17.9903 10.8035L17.9911 10.8012Z" fill="#F2D608"/>
<path d="M21.7039 1.86166C22.6032 1.80162 23.2587 2.72621 22.9002 3.55765C22.5417 4.3891 21.4008 4.55385 20.8315 3.8348C20.2214 3.06341 20.7284 1.92633 21.7039 1.86166Z" fill="#F2D608"/>
<path d="M19.2022 9.53041C19.1214 10.0139 19.3453 10.4127 19.68 10.6452C19.6977 10.6575 19.7161 10.6698 19.7353 10.6813C20.4708 11.1309 21.4055 10.6721 21.624 9.91611C21.8702 8.71052 22.1941 7.52032 22.4295 6.31242C22.521 5.84358 22.4518 5.40168 22.0533 5.06833C21.3071 4.44398 20.1954 4.94054 20.0023 5.79508L19.2022 9.53041Z" fill="#F2D608"/>
<path d="M13.9449 5.14972C13.8264 4.99344 13.5979 4.80791 13.1794 4.80791C12.964 4.80791 12.7047 4.86795 12.4655 5.08197C12.1347 4.8618 11.6969 4.73785 11.1976 4.73785C9.62748 4.73785 8.14655 5.95191 7.6765 7.6248C7.41955 8.53785 7.5311 9.37468 7.98961 9.97979C8.39658 10.5171 9.04511 10.8135 9.81519 10.8135C10.276 10.8135 10.7514 10.695 11.163 10.491C11.2815 10.6272 11.4938 10.7835 11.8454 10.7835C12.4355 10.7835 12.8317 10.4386 13.0232 9.75884L14.061 6.06585C14.1649 5.69709 14.1249 5.38761 13.9449 5.14972ZM10.1868 8.69259C10.0052 8.69259 9.87674 8.64332 9.80288 8.54632C9.70672 8.41852 9.69133 8.19142 9.76288 7.93659C9.92828 7.34766 10.4945 6.86804 11.0238 6.86804C11.1976 6.86804 11.3238 6.91808 11.3984 7.01662C11.4984 7.14903 11.5169 7.37614 11.4477 7.62403C11.2792 8.22298 10.7253 8.69259 10.1868 8.69259Z" fill="#F2D608"/>
</svg>
