<?xml version="1.0" encoding="UTF-8"?>
<svg id="Layer_1" data-name="Layer 1" xmlns="http://www.w3.org/2000/svg" xmlns:xlink="http://www.w3.org/1999/xlink" viewBox="0 0 257.28 45.09">
  <defs>
    <style>
      .cls-1 {
        fill: url(#linear-gradient);
      }

      .cls-2 {
        fill: #d2d2d2;
      }

      .cls-3 {
        fill: url(#linear-gradient-2);
      }
    </style>
    <linearGradient id="linear-gradient" x1="188.07" y1="0" x2="188.07" y2="45.09" gradientUnits="userSpaceOnUse">
      <stop offset="0" stop-color="#f79820"/>
      <stop offset="1" stop-color="#e92f26"/>
    </linearGradient>
    <linearGradient id="linear-gradient-2" x1="188.07" y1="9.53" x2="188.07" y2="43.65" gradientUnits="userSpaceOnUse">
      <stop offset="0" stop-color="#f9da02"/>
      <stop offset="1" stop-color="#f15b25"/>
    </linearGradient>
  </defs>
  <path class="cls-2" d="m43.09,8.18v36.91h-10.26v-20.37l-6.96,20.37h-8.59l-7.02-20.52v20.52H0V8.18h12.41l9.27,23.98,9.06-23.98h12.36Z"/>
  <path class="cls-2" d="m49.77,11.5c-1.1-.99-1.65-2.24-1.65-3.74s.55-2.81,1.65-3.82c1.1-1.01,2.56-1.52,4.37-1.52s3.22.51,4.32,1.52,1.65,2.29,1.65,3.82-.55,2.75-1.65,3.74-2.54,1.49-4.32,1.49-3.27-.5-4.37-1.49Zm9.45,4.21v29.37h-10.26V15.72h10.26Z"/>
  <path class="cls-2" d="m65.29,22.42c1.26-2.27,3.01-4.01,5.26-5.24,2.25-1.22,4.83-1.83,7.72-1.83,3.74,0,6.88,1.02,9.42,3.06s4.19,4.9,4.92,8.56h-10.89c-.63-1.92-1.85-2.88-3.66-2.88-1.29,0-2.31.53-3.06,1.6-.75,1.07-1.13,2.63-1.13,4.69s.37,3.63,1.13,4.71c.75,1.08,1.77,1.62,3.06,1.62,1.85,0,3.07-.96,3.66-2.88h10.89c-.73,3.63-2.37,6.48-4.92,8.53-2.55,2.06-5.69,3.09-9.42,3.09-2.9,0-5.47-.61-7.72-1.83-2.25-1.22-4.01-2.97-5.26-5.24-1.26-2.27-1.89-4.94-1.89-8.01s.63-5.69,1.89-7.96Z"/>
  <path class="cls-2" d="m111.31,16.92c1.64-.98,3.4-1.47,5.29-1.47v10.94h-2.88c-2.23,0-3.89.44-4.97,1.31-1.08.87-1.62,2.39-1.62,4.55v12.83h-10.26V15.72h10.26v5.18c1.15-1.68,2.55-3,4.19-3.98Z"/>
  <path class="cls-2" d="m126.05,43.63c-2.32-1.22-4.15-2.97-5.47-5.24-1.33-2.27-1.99-4.94-1.99-8.01s.67-5.69,2.02-7.96c1.34-2.27,3.18-4.01,5.5-5.24,2.32-1.22,4.95-1.83,7.88-1.83s5.56.61,7.88,1.83c2.32,1.22,4.15,2.97,5.5,5.24,1.34,2.27,2.02,4.92,2.02,7.96s-.67,5.7-2.02,7.98c-1.34,2.29-3.19,4.04-5.52,5.26-2.34,1.22-4.97,1.83-7.91,1.83s-5.56-.61-7.88-1.83Zm11.47-8.66c.96-1.06,1.44-2.59,1.44-4.58s-.48-3.51-1.44-4.55c-.96-1.05-2.14-1.57-3.53-1.57s-2.57.52-3.51,1.57-1.41,2.57-1.41,4.55.45,3.56,1.36,4.61c.91,1.05,2.08,1.57,3.51,1.57s2.63-.53,3.59-1.6Z"/>
  <path class="cls-2" d="m178.59,8.18v8.17h-14.76v6.49h10.89v7.8h-10.89v14.45h-10.26V8.18h25.03Z"/>
  <path class="cls-2" d="m217.75,45.09l-7.33-13.61h-1.1v13.61h-10.26V8.18h16.18c2.97,0,5.48.51,7.54,1.54,2.06,1.03,3.61,2.44,4.66,4.24,1.05,1.8,1.57,3.81,1.57,6.05,0,2.51-.69,4.72-2.07,6.62-1.38,1.9-3.4,3.26-6.05,4.06l8.32,14.4h-11.47Zm-8.43-20.63h5.08c1.4,0,2.44-.33,3.14-.99.7-.66,1.05-1.62,1.05-2.88,0-1.19-.36-2.12-1.07-2.8s-1.75-1.02-3.11-1.02h-5.08v7.7Z"/>
  <path class="cls-2" d="m243.93,16.4v6.02h11.78v7.8h-11.78v6.65h13.35v8.22h-23.61V8.18h23.61v8.22h-13.35Z"/>
  <path class="cls-1" d="m182.93,16.87v-1.44c0-.47.33-.89.8-.98.74-.14,1.62-.66.89-2.39-1.16-2.73-1.91-4.41-.35-5.8,0,0-.06,2.78,1.39,2.55.7-.23,1.68-1.39,1.28-3.42-.41-2.03-.93-3.83.46-5.39,0,0-.81,2.26.41,4,1.22,1.74,2.15,4.93,1.91,6.84,0,0,1.22-.12.99-3.36,0,0,1.1,1.51,1.04,2.84-.05,1.19-.57,3.31.85,3.91.36.16.6.52.6.92v29.94h-10.26v-28.22Z"/>
  <path class="cls-3" d="m184.33,43.65v-26.52c.94-.27,1.42-.84,1.66-1.29.43-.8.4-1.79-.09-2.94l-.06-.14c-.19-.44-.35-.82-.48-1.16.05,0,.09,0,.14,0,.13,0,.26-.01.39-.03.07-.01.15-.03.22-.05.81-.27,1.55-.98,1.97-2,.24.95.35,1.87.27,2.54-.05.42.09.84.38,1.14.26.27.62.42,1,.42.04,0,.09,0,.13,0,.08,0,.21-.03.38-.08,0,1.18.26,2.55,1.58,3.25v26.87h-7.48Z"/>
</svg>