<?xml version="1.0" encoding="UTF-8"?>
<svg id="_圖層_1" data-name=" 圖層 1" xmlns="http://www.w3.org/2000/svg" viewBox="0 0 24 24">
  <defs>
    <style>
      .cls-1 {
        fill: #f2d608;
        stroke: #f2d608;
        stroke-miterlimit: 10;
        stroke-width: .25px;
      }

      .cls-2 {
        fill: #00a15d;
      }
    </style>
  </defs>
  <circle class="cls-2" cx="12" cy="12" r="12"/>
  <path class="cls-1" d="M6.12,15.61c-.1,0-.18,0-.28-.03-.47-.1-.74-.55-.64-1.05.08-.36.2-.75.31-1.13.1-.3.19-.6.27-.9,0-.03.07-.28.09-.36s0-.17-.05-.24-.12-.11-.21-.12c-.06,0-.13,0-.14,0h-.07c-.72,0-1.2.33-1.43,1.03-.11.34-.22.71-.3,1.05-.1.34-.19.71-.3,1.04-.17.49-.7.73-1.13.73-.37,0-.67-.17-.82-.47-.16-.3-.08-.57.03-.94l.03-.1c.19-.66.38-1.32.57-1.96.17-.56.34-1.13.51-1.71.17-.46.63-.77,1.13-.77.13,0,.27.03.4.08,0,0,.04.02.07.03.1.06.16.09.24.09h.02c.08,0,.14-.02.29-.07h.02s.06-.02.08-.03c.28-.07.56-.1.84-.1.48,0,1.14.1,1.66.53l.02.02c.48.42.7,1.1.56,1.75-.27,1.31-.56,2.72-.6,2.82-.17.5-.62.82-1.14.82Z"/>
  <path class="cls-1" d="M17.45,15.61c-.1,0-.18,0-.28-.03-.47-.1-.74-.55-.64-1.05.08-.36.2-.75.31-1.13.1-.3.19-.6.27-.9,0-.03.07-.28.09-.36s0-.17-.05-.24-.12-.11-.21-.12c-.06,0-.13,0-.14,0h-.07c-.72,0-1.2.33-1.43,1.03-.11.34-.22.71-.3,1.05-.1.34-.19.71-.3,1.04-.17.49-.7.73-1.13.73-.37,0-.67-.17-.82-.47-.16-.3-.08-.57.03-.94l.03-.1c.19-.66.38-1.32.57-1.96.17-.56.34-1.13.51-1.71.17-.46.63-.77,1.13-.77.13,0,.27.03.4.08,0,0,.04.02.07.03.1.06.16.09.24.09h.02c.08,0,.14-.02.29-.07h.02s.06-.02.08-.03c.28-.07.56-.1.84-.1.48,0,1.14.1,1.66.53l.02.02c.48.42.7,1.1.56,1.75-.27,1.31-.56,2.72-.6,2.82-.17.5-.62.82-1.14.82Z"/>
  <g>
    <path class="cls-1" d="M21.14,7.08c.86-.06,1.49.82,1.14,1.62-.34.8-1.43.95-1.97.27-.58-.73-.1-1.82.83-1.88h0Z"/>
    <path class="cls-1" d="M18.64,14.4c-.08.46.13.84.46,1.07.02,0,.04.02.06.04.71.43,1.59,0,1.8-.73.24-1.15.54-2.29.77-3.44.09-.45.02-.87-.36-1.18-.71-.59-1.77-.12-1.95.7l-.76,3.56h0Z"/>
  </g>
  <path class="cls-1" d="M13.66,10.12c-.11-.15-.33-.33-.74-.33-.21,0-.46.06-.7.27-.32-.21-.75-.33-1.24-.33-1.52,0-2.97,1.18-3.43,2.81-.25.89-.14,1.71.3,2.3.4.52,1.03.81,1.78.81.45,0,.91-.11,1.32-.31.11.13.32.29.67.29.57,0,.96-.33,1.14-1l1.01-3.59c.1-.36.07-.66-.11-.89h0ZM10,13.56c-.18,0-.3-.05-.37-.14-.1-.12-.1-.34-.04-.59.16-.57.71-1.04,1.23-1.04.17,0,.3.05.36.14.1.13.11.35.05.59-.16.58-.71,1.04-1.23,1.04Z"/>
</svg>