<?xml version="1.0" encoding="UTF-8"?>
<svg id="_圖層_1" data-name="圖層 1" xmlns="http://www.w3.org/2000/svg" viewBox="0 0 24 24">
  <defs>
    <style>
      .cls-1 {
        fill: #f2d608;
        stroke: #f2d608;
        stroke-miterlimit: 10;
        stroke-width: .25px;
      }

      .cls-2 {
        fill: #00a15d;
      }
    </style>
  </defs>
  <rect class="cls-2" x="0" width="24" height="24" rx="1.51" ry="1.51"/>
  <path class="cls-1" d="M5.93,15.94c-.1,0-.19-.01-.29-.03-.49-.1-.78-.58-.67-1.1.08-.38.21-.79.33-1.19.1-.31.2-.63.28-.94,0-.03.07-.29.09-.38.02-.09,0-.18-.05-.25-.05-.07-.13-.12-.22-.13-.06,0-.14-.01-.15-.01-.03,0-.05,0-.07,0-.76,0-1.26.35-1.5,1.08-.12.36-.23.74-.32,1.1-.1.36-.2.74-.32,1.09-.18.51-.73.77-1.19.77-.39,0-.7-.18-.86-.49-.17-.32-.08-.6.03-.99l.03-.11c.2-.69.4-1.39.6-2.06.18-.59.36-1.19.53-1.79.18-.48.66-.81,1.19-.81.14,0,.28.03.42.08.01,0,.04.02.07.03.11.06.17.09.25.09,0,0,.02,0,.02,0,.08,0,.15-.02.3-.07h.02s.06-.02.08-.03c.29-.07.59-.1.88-.1.5,0,1.2.1,1.74.56l.02.02c.5.44.73,1.15.59,1.84-.28,1.37-.59,2.85-.63,2.96-.18.52-.65.86-1.2.86Z"/>
  <path class="cls-1" d="M17.82,15.94c-.1,0-.19-.01-.29-.03-.49-.1-.78-.58-.67-1.1.08-.38.21-.79.33-1.19.1-.31.2-.63.28-.94,0-.03.07-.29.09-.38.02-.09,0-.18-.05-.25-.05-.07-.13-.12-.22-.13-.06,0-.14-.01-.15-.01-.03,0-.05,0-.07,0-.76,0-1.26.35-1.5,1.08-.12.36-.23.74-.32,1.1-.1.36-.2.74-.32,1.09-.18.51-.73.77-1.19.77-.39,0-.7-.18-.86-.49-.17-.32-.08-.6.03-.99l.03-.11c.2-.69.4-1.39.6-2.06.18-.59.36-1.19.53-1.79.18-.48.66-.81,1.19-.81.14,0,.28.03.42.08.01,0,.04.02.07.03.11.06.17.09.25.09,0,0,.02,0,.02,0,.08,0,.15-.02.3-.07h.02s.06-.02.08-.03c.29-.07.59-.1.88-.1.5,0,1.2.1,1.74.56l.02.02c.5.44.73,1.15.59,1.84-.28,1.37-.59,2.85-.63,2.96-.18.52-.65.86-1.2.86Z"/>
  <g>
    <path class="cls-1" d="M21.69,6.99c.9-.06,1.56.86,1.2,1.7s-1.5,1-2.07.28c-.61-.77-.1-1.91.87-1.97Z"/>
    <path class="cls-1" d="M19.07,14.67c-.08.48.14.88.48,1.12.02.01.04.02.06.04.74.45,1.67,0,1.89-.77.25-1.21.57-2.4.81-3.61.09-.47.02-.91-.38-1.24-.75-.62-1.86-.13-2.05.73l-.8,3.74Z"/>
  </g>
  <path class="cls-1" d="M13.84,10.18c-.12-.16-.35-.35-.78-.35-.22,0-.48.06-.73.28-.34-.22-.79-.35-1.3-.35-1.6,0-3.12,1.24-3.6,2.95-.26.93-.15,1.79.32,2.41.42.55,1.08.85,1.87.85.47,0,.96-.12,1.38-.33.12.14.34.3.7.3.6,0,1.01-.35,1.2-1.05l1.06-3.77c.11-.38.07-.69-.12-.93ZM10,13.79c-.19,0-.32-.05-.39-.15-.1-.13-.11-.36-.04-.62.17-.6.75-1.09,1.29-1.09.18,0,.31.05.38.15.1.14.12.37.05.62-.17.61-.74,1.09-1.29,1.09Z"/>
</svg>