<svg width="24" height="12" viewBox="0 0 24 12" fill="none" xmlns="http://www.w3.org/2000/svg">
<g clip-path="url(#clip0_1856_35328)">
<path d="M23.8081 3.2342C24.1297 2.48933 24.0408 1.64771 23.5712 0.98253C23.1017 0.318057 22.3383 -0.0469057 21.5287 0.00573997C20.6679 0.0633656 19.9152 0.589822 19.5645 1.37951C19.2507 2.08738 19.3019 2.86354 19.6932 3.50881C19.637 3.54723 19.5815 3.58849 19.5289 3.63188L19.5097 3.61552C18.7179 2.92899 17.7453 2.78529 17.0681 2.78529C16.7024 2.78529 16.3339 2.82655 15.9746 2.90836C15.7256 2.82086 15.4638 2.77675 15.1963 2.77675C14.7531 2.77675 14.3148 2.90054 13.9321 3.12962C13.6041 2.94536 13.2242 2.84931 12.8159 2.84931C12.569 2.84931 12.3278 2.88773 12.0973 2.96385C11.7345 2.84505 11.3339 2.78244 10.9284 2.78244C9.9303 2.78244 8.91937 3.15523 8.08984 3.81757C8.03079 3.75567 7.96961 3.69591 7.90487 3.639L7.87784 3.61552C7.08602 2.92971 6.1135 2.78529 5.43622 2.78529C5.07054 2.78529 4.70202 2.82655 4.34204 2.90836C4.09304 2.82086 3.83124 2.77675 3.56374 2.77675C2.55351 2.77675 1.60803 3.42913 1.26441 4.36323C1.25302 4.39382 1.24306 4.42513 1.23524 4.45287C1.08299 4.98217 0.92221 5.52286 0.767119 6.04505L0.751468 6.0984C0.566496 6.7209 0.375123 7.36474 0.191574 8.01143L0.162406 8.11174C0.0350602 8.54998 -0.157025 9.21161 0.226434 9.96288C0.592819 10.6814 1.31563 11.1097 2.15867 11.1097C2.81105 11.1097 3.60145 10.8194 4.10371 10.1941C4.40465 10.6366 4.85925 10.9411 5.38926 11.0535C5.56498 11.0912 5.74355 11.1097 5.92141 11.1097C6.53324 11.1097 7.10309 10.892 7.54346 10.5C8.11901 10.9119 8.82475 11.1275 9.61087 11.1275C9.98722 11.1275 10.3813 11.0699 10.7598 10.9603C11.0038 11.0521 11.2664 11.099 11.5445 11.099C11.9557 11.099 12.3428 11.0037 12.6807 10.8216C13.0108 11.0094 13.395 11.1104 13.7919 11.1104C14.4443 11.1104 15.2347 10.8201 15.737 10.1948C16.0379 10.6373 16.4925 10.9418 17.0225 11.0542C17.1982 11.0919 17.3768 11.1104 17.5547 11.1104C18.0548 11.1104 18.5322 10.9631 18.9327 10.6892C18.9562 10.7049 18.9797 10.7198 19.0046 10.7348C19.6164 11.109 20.3869 11.1744 21.0656 10.9112C21.7699 10.638 22.3127 10.0511 22.5176 9.3418L22.5404 9.24931C22.6435 8.74349 22.7659 8.22557 22.8847 7.72188C23.0234 7.13282 23.1671 6.52455 23.2874 5.90916C23.4325 5.1643 23.2781 4.60512 23.0355 4.20032C23.3734 3.95985 23.6402 3.62975 23.8103 3.23562L23.8081 3.2342Z" fill="#00A15D"/>
<path d="M22.8179 1.5154C22.5354 1.11487 22.078 0.895748 21.5921 0.927762C21.0749 0.96191 20.6224 1.2785 20.4118 1.75373C20.1984 2.23537 20.266 2.77036 20.5932 3.18299C20.8586 3.51807 21.2534 3.7066 21.6746 3.7066C21.7365 3.7066 21.7991 3.70233 21.8617 3.6945C22.354 3.62976 22.7645 3.32029 22.9602 2.86711C23.153 2.42034 23.0996 1.91522 22.8172 1.5154H22.8179Z" fill="#F2D608"/>
<path d="M21.9408 4.32481C21.563 4.00893 21.0721 3.92072 20.5948 4.0815C20.0989 4.2494 19.7226 4.65562 19.6123 5.14508L19.5625 5.37843C19.4579 4.97576 19.2409 4.60938 18.9286 4.33263L18.9066 4.31342C18.3303 3.814 17.5904 3.70942 17.0711 3.70942C16.7737 3.70942 16.4735 3.74357 16.1789 3.80973C16.1597 3.814 16.127 3.82325 16.0893 3.83463L16.0644 3.84246C16.0096 3.85882 15.9292 3.88372 15.8979 3.8887C15.8794 3.88088 15.8439 3.86167 15.8119 3.84459L15.8012 3.8389C15.7749 3.82467 15.7436 3.80831 15.7329 3.80333C15.7258 3.79977 15.7187 3.79693 15.7108 3.79408C15.5486 3.73148 15.3765 3.70017 15.1993 3.70017C14.6857 3.70017 14.1998 3.96838 13.9223 4.3803C13.8931 4.32765 13.8625 4.2807 13.8312 4.23944C13.6036 3.9385 13.2436 3.77274 12.8182 3.77274C12.5656 3.77274 12.3266 3.8389 12.1153 3.96554C11.7738 3.79479 11.3697 3.70515 10.9307 3.70515C9.7633 3.70515 8.64422 4.33761 7.91572 5.32365C7.80616 4.94233 7.59629 4.59657 7.2982 4.33263L7.27544 4.31271C6.69918 3.81329 5.9593 3.70871 5.43995 3.70871C5.14258 3.70871 4.84236 3.74286 4.54782 3.80902C4.52862 3.81329 4.4966 3.82254 4.4589 3.83392L4.43257 3.84175C4.37779 3.85811 4.2974 3.88301 4.2661 3.88799C4.2476 3.87945 4.21061 3.86025 4.18002 3.84388L4.16863 3.83819C4.14231 3.82396 4.11172 3.80831 4.10176 3.80333C4.09393 3.79977 4.08682 3.79693 4.07899 3.79337C3.91679 3.73148 3.74462 3.69946 3.56748 3.69946C2.93715 3.69946 2.34809 4.10284 2.13537 4.68123C2.13253 4.68906 2.12968 4.6976 2.12755 4.70613C1.97317 5.24326 1.81025 5.79106 1.65303 6.32107L1.64236 6.35736C1.45738 6.97985 1.26601 7.6237 1.08317 8.26611L1.05401 8.36856C0.942311 8.75344 0.83702 9.11698 1.05401 9.54099C1.25961 9.94366 1.67366 10.1834 2.16241 10.1834C2.69527 10.1834 3.37184 9.88532 3.59878 9.22939C3.71474 8.89146 3.81079 8.54001 3.90469 8.19711C3.99433 7.86772 4.08753 7.52765 4.1978 7.20324C4.37708 6.67394 4.69153 6.44771 5.24787 6.44771C5.2621 6.44771 5.27633 6.44771 5.29553 6.44771C5.30692 6.44771 5.32043 6.44913 5.33324 6.44984C5.31688 6.52027 5.29055 6.6277 5.26637 6.72018C5.19522 6.99764 5.10345 7.29075 5.01523 7.5739C4.89856 7.94739 4.77833 8.3337 4.69794 8.70507C4.62466 9.04228 4.68157 9.37808 4.85801 9.64984C5.02377 9.90595 5.28273 10.0824 5.5858 10.1464C5.6982 10.1706 5.81203 10.1827 5.92515 10.1827C6.58678 10.1827 7.15307 9.77505 7.36934 9.14188C7.37646 9.11983 7.39069 9.06362 7.40919 8.98323C7.46325 9.08141 7.52372 9.17603 7.59202 9.26567C8.04876 9.86825 8.76659 10.2005 9.61461 10.2005C10.018 10.2005 10.4427 10.1144 10.834 9.95575C11.0012 10.0746 11.2338 10.1713 11.5483 10.1713C12.0392 10.1713 12.4368 9.96714 12.7115 9.5851C12.9242 9.96002 13.3254 10.1827 13.795 10.1827C14.3278 10.1827 15.0044 9.88461 15.2313 9.22868C15.3466 8.89217 15.4426 8.54144 15.5372 8.19639C15.6269 7.867 15.7201 7.52694 15.8303 7.20253C16.0096 6.67323 16.3241 6.447 16.8804 6.447C16.8946 6.447 16.9089 6.447 16.9281 6.447C16.9395 6.447 16.953 6.44842 16.9658 6.44913C16.9494 6.51956 16.9231 6.62699 16.8996 6.71947C16.8285 6.99693 16.7367 7.29004 16.6485 7.57318C16.5318 7.94668 16.4116 8.33299 16.3312 8.70435C16.2586 9.04157 16.3148 9.37736 16.4913 9.64913C16.657 9.90524 16.916 10.0817 17.2191 10.1457C17.3315 10.1699 17.4453 10.182 17.5584 10.182C18.1653 10.182 18.691 9.83837 18.9407 9.29342C19.0332 9.53174 19.1982 9.74233 19.4266 9.90097C19.4472 9.9152 19.4679 9.92872 19.4899 9.94224C19.7098 10.0767 19.9581 10.145 20.2106 10.145C20.3856 10.145 20.5628 10.1123 20.7342 10.0454C21.171 9.87536 21.5068 9.51538 21.632 9.08141L21.637 9.06078C21.743 8.54215 21.8668 8.0164 21.987 7.50773C22.1243 6.92721 22.2659 6.32605 22.3826 5.72845C22.4978 5.13583 22.3506 4.66345 21.9436 4.32338L21.9408 4.32481ZM9.90416 7.20395C10.0173 6.80057 10.4192 6.44628 10.7629 6.44628C10.8041 6.44628 10.8276 6.45126 10.8397 6.45482C10.8504 6.4847 10.8646 6.57149 10.8247 6.71378C10.7074 7.13139 10.3218 7.47145 9.96605 7.47145C9.92337 7.47145 9.89705 7.46718 9.88282 7.46291C9.87428 7.42805 9.86645 7.34055 9.90487 7.20395H9.90416Z" fill="#F2D608"/>
</g>
<defs>
<clipPath id="clip0_1856_35328">
<rect width="24" height="11.126" fill="white"/>
</clipPath>
</defs>
</svg>
