<svg width="24" height="12" viewBox="0 0 24 12" fill="none" xmlns="http://www.w3.org/2000/svg">
<path d="M5.62746 11.2692C4.83763 11.1004 4.41408 10.3375 4.58019 9.5721L5.62746 11.2692ZM5.62746 11.2692C5.73908 11.2935 5.85123 11.3069 5.96255 11.3104C5.98116 11.3125 5.99999 11.3135 6.01895 11.3135C6.71285 11.3135 7.31928 10.9202 7.6098 10.3061C8.12624 10.9711 8.92465 11.3135 9.81519 11.3135C10.2458 11.3135 10.6817 11.2263 11.0812 11.0724C11.2735 11.1935 11.5257 11.2835 11.8454 11.2835C12.2385 11.2835 12.601 11.1675 12.8978 10.9154C13.1675 11.17 13.532 11.3012 13.9214 11.3012C14.522 11.3012 15.3174 10.9604 15.5833 10.1927L15.5839 10.1908C15.7102 9.82127 15.8157 9.43487 15.9134 9.0773L15.9161 9.06735L15.9162 9.06683L15.9181 9.06019C16.0174 8.69804 16.1154 8.34073 16.2315 7.99741C16.3298 7.7077 16.4614 7.53559 16.6058 7.43176C16.7417 7.33408 16.9305 7.26696 17.2056 7.25943C17.1874 7.33321 17.1711 7.3969 17.1683 7.40757L17.1674 7.411C17.092 7.70624 16.9968 8.01151 16.8977 8.32856C16.7751 8.72019 16.6402 9.15227 16.5515 9.5623C16.3855 10.3276 16.8091 11.0904 17.5988 11.2592M5.62746 11.2692L21.6708 1.36276C22.9432 1.27797 23.8658 2.58095 23.3593 3.75562C23.1613 4.21482 22.7945 4.53075 22.3729 4.68381C22.3733 4.68416 22.3737 4.6845 22.3741 4.68485C22.9578 5.17311 23.0336 5.8275 22.9202 6.40824C22.8004 7.02288 22.6585 7.63112 22.5175 8.22978C22.5084 8.26828 22.4993 8.30673 22.4903 8.34514C22.3578 8.90699 22.2274 9.46025 22.1139 10.0161C22.1112 10.0292 22.1081 10.0421 22.1044 10.0549C21.8064 11.0859 20.5286 11.7508 19.4762 11.1089C19.4446 11.0899 19.4168 11.0712 19.3943 11.0555M17.5988 11.2592C17.5985 11.2591 17.5981 11.2591 17.5977 11.259L17.623 11.1428M17.5988 11.2592C17.5992 11.2593 17.5996 11.2594 17.6 11.2595L17.6245 11.1444M17.5988 11.2592C17.7105 11.2835 17.8226 11.2969 17.9339 11.3003M17.623 11.1428C17.6235 11.1433 17.624 11.1438 17.6245 11.1444M17.623 11.1428C17.6094 11.1281 17.5966 11.1124 17.5848 11.096C17.5021 10.9813 17.4723 10.8378 17.5009 10.7012L17.6245 11.1444M17.623 11.1428L17.7041 10.7704L17.6245 11.1444M17.6245 11.1444C17.7057 11.2315 17.8155 11.2869 17.9339 11.3003M17.6245 11.1444L17.9911 10.8038M17.9339 11.3003C17.9525 11.3025 17.9714 11.3035 17.9903 11.3035C18.4371 11.3035 18.8476 11.1405 19.1609 10.8604M17.9339 11.3003C17.9528 11.3009 17.9716 11.3012 17.9903 11.3012C17.9906 11.3012 17.9908 11.3012 17.9911 11.3012V10.8038M19.1609 10.8604C19.2333 10.9328 19.3117 10.9981 19.3943 11.0555M19.1609 10.8604C19.0434 10.743 18.9416 10.6069 18.8627 10.4551C18.7523 10.5616 18.6236 10.6466 18.4819 10.7059C18.4981 10.7892 18.4931 10.8764 18.4655 10.9592L18.4647 10.9615L17.9911 10.8038M19.1609 10.8604C19.285 10.7495 19.3938 10.6202 19.4836 10.4754L17.9911 10.8038M19.3943 11.0555C19.3944 11.0556 19.3946 11.0557 19.3947 11.0558L19.68 10.6452L19.3943 11.0555ZM20.6814 4.39533C20.595 4.32244 20.5139 4.23914 20.4395 4.14517L20.4393 4.14496C19.5798 3.05807 20.293 1.45428 21.6706 1.36278L20.6814 4.39533ZM20.6814 4.39533C20.6676 4.40032 20.6537 4.40547 20.64 4.41079C20.3183 4.5352 20.0241 4.75274 19.8114 5.04026C19.7338 4.94503 19.6482 4.8555 19.5549 4.77278C19.5544 4.77234 19.5539 4.7719 19.5534 4.77146L19.5336 4.75368L19.5336 4.75363L19.5274 4.74823C18.8592 4.1683 18.0077 4.06617 17.4664 4.06617C17.1358 4.06617 16.8025 4.1035 16.4748 4.1779L16.4747 4.17793C16.4426 4.18524 16.3967 4.19899 16.373 4.20611C16.3699 4.20704 16.3672 4.20785 16.3649 4.20853L16.3512 4.21246L16.3512 4.21242L16.3444 4.21445C16.2782 4.23439 16.2387 4.24608 16.2101 4.25357C16.1962 4.24637 16.1799 4.23769 16.1578 4.22588L16.1575 4.22574L16.1531 4.22337C16.1357 4.21405 16.0903 4.18973 16.0659 4.17846C16.0565 4.17412 16.047 4.17007 16.0373 4.16632C15.8463 4.09209 15.6446 4.05616 15.4416 4.05616C14.9425 4.05616 14.4644 4.27164 14.133 4.62835C13.9175 4.45007 13.6067 4.30791 13.1794 4.30791C12.9555 4.30791 12.6941 4.35391 12.4359 4.49424C12.0693 4.32375 11.6456 4.23785 11.1976 4.23785C10.0513 4.23785 8.97205 4.78788 8.19849 5.65701C8.06377 5.3256 7.85666 5.02494 7.58332 4.78264L7.56221 4.7637L7.56226 4.76365L7.55603 4.75824C6.88779 4.1783 6.03629 4.07618 5.49505 4.07618C5.16443 4.07618 4.83111 4.11351 4.50347 4.1879L4.5033 4.18794C4.4712 4.19524 4.42539 4.20899 4.40165 4.21611C4.39855 4.21704 4.39583 4.21786 4.39356 4.21854L4.3798 4.22247L4.37979 4.22242L4.37304 4.22446C4.30685 4.24439 4.26736 4.25609 4.23875 4.26358C4.22487 4.25638 4.20859 4.24771 4.18646 4.23592C4.18528 4.23529 4.18366 4.23443 4.18169 4.23337C4.16429 4.22405 4.11894 4.19974 4.09453 4.18847C4.08513 4.18412 4.0756 4.18008 4.06595 4.17633C3.87488 4.10209 3.67322 4.06617 3.47022 4.06617C2.74483 4.06617 2.06383 4.52128 1.81309 5.20359C1.80894 5.21489 1.8052 5.22633 1.80187 5.23789C1.63103 5.83204 1.4524 6.43354 1.27694 7.02342L1.27679 7.02394C1.26011 7.08025 1.24336 7.13674 1.22657 7.19341C1.04242 7.81477 0.852268 8.4564 0.672412 9.08984C0.672295 9.09025 0.672177 9.09067 0.67206 9.09108L0.640498 9.2001C0.640495 9.20011 0.640492 9.20012 0.640489 9.20013C0.640477 9.20017 0.640465 9.20021 0.640454 9.20025C0.636154 9.21509 0.631764 9.23012 0.627317 9.24535C0.524863 9.59618 0.392388 10.0498 0.648244 10.5523L0.648551 10.5529C0.903125 11.0512 1.40175 11.3112 1.95006 11.3112C2.55061 11.3112 3.34606 10.9704 3.6119 10.2027L3.61255 10.2008C3.73881 9.83129 3.84434 9.44492 3.94199 9.08736L3.94472 9.07736L3.94486 9.07684L3.94668 9.07022C4.04599 8.70813 4.14397 8.35087 4.26001 8.0076C4.35833 7.71778 4.48998 7.54562 4.63446 7.44176C4.77034 7.34408 4.95913 7.27697 5.23418 7.26944C5.21601 7.34321 5.1997 7.4069 5.19689 7.41758L5.19688 7.41757L5.196 7.42101C5.12061 7.71621 5.02547 8.02144 4.92633 8.33845C4.92632 8.33849 4.9263 8.33853 4.92629 8.33857L5.4035 8.48781M20.6814 4.39533L4.58024 9.57189L5.06885 9.67801M5.4035 8.48781C5.27964 8.88352 5.15193 9.29385 5.06885 9.67801M5.4035 8.48781C5.50197 8.17294 5.60121 7.85499 5.68045 7.54474C5.68815 7.51549 5.75431 7.25604 5.77123 7.16443M5.4035 8.48781L5.77123 7.16443M5.06885 9.67801C4.97176 10.1251 5.16555 10.5352 5.52953 10.7112L5.06885 9.67801ZM5.77123 7.16443C5.78739 7.07667 5.76815 6.98583 5.71815 6.915C5.66737 6.84263 5.59044 6.79567 5.50274 6.78258C5.44735 6.77412 5.36273 6.7695 5.35273 6.7695C5.33813 6.7695 5.32557 6.76927 5.31407 6.76906C5.30434 6.76889 5.29537 6.76873 5.28656 6.76873L5.77123 7.16443ZM5.77123 7.16443L5.45446 7.10612L5.45331 7.10591L5.4489 7.1051L5.44756 7.10485L5.35273 7.08739L5.28656 7.07521L5.27949 7.07391C5.27465 7.10022 5.27611 7.12963 5.28656 7.15907C5.29171 7.17355 5.29903 7.18805 5.30885 7.20218L5.77123 7.16443ZM7.21523 9.95054C7.09344 10.3083 6.8359 10.5796 6.51055 10.7159L7.21523 9.95054ZM7.21523 9.95054C7.22287 9.92776 7.24176 9.84878 7.26936 9.72597L7.21523 9.95054ZM20.1078 5.50709C20.0611 5.59719 20.0252 5.69361 20.0023 5.79508L20.1078 5.50709ZM10.2207 8.1912C10.2241 8.1583 10.2312 8.11822 10.2443 8.07179C10.2974 7.88256 10.4202 7.69845 10.5801 7.56293C10.7269 7.43853 10.8743 7.37998 10.988 7.3697C10.9857 7.40206 10.9793 7.44219 10.9663 7.48894C10.8505 7.90011 10.4886 8.16971 10.2207 8.1912Z" fill="#F2D608" stroke="#0FA25E" stroke-linejoin="round"/>
</svg>
